<mxfile host="app.diagrams.net" modified="2024-06-08T11:23:46.119Z" agent="Mozilla/5.0 (Macintosh; Intel Mac OS X 10_15_7) AppleWebKit/537.36 (KHTML, like Gecko) Chrome/124.0.0.0 Safari/537.36" etag="uxwn5rl0qMDjNxz88iDz" version="24.5.2" type="github">
  <diagram id="C5RBs43oDa-KdzZeNtuy" name="Page-1">
    <mxGraphModel dx="954" dy="528" grid="1" gridSize="10" guides="1" tooltips="1" connect="1" arrows="1" fold="1" page="1" pageScale="1" pageWidth="827" pageHeight="1169" math="0" shadow="0">
      <root>
        <mxCell id="WIyWlLk6GJQsqaUBKTNV-0" />
        <mxCell id="WIyWlLk6GJQsqaUBKTNV-1" parent="WIyWlLk6GJQsqaUBKTNV-0" />
        <mxCell id="I7D070yaXzZMGeD8CzcI-27" style="edgeStyle=orthogonalEdgeStyle;rounded=0;orthogonalLoop=1;jettySize=auto;html=1;exitX=0.5;exitY=0;exitDx=0;exitDy=0;entryX=0.5;entryY=1;entryDx=0;entryDy=0;" edge="1" parent="WIyWlLk6GJQsqaUBKTNV-1" source="WIyWlLk6GJQsqaUBKTNV-6" target="I7D070yaXzZMGeD8CzcI-6">
          <mxGeometry relative="1" as="geometry" />
        </mxCell>
        <mxCell id="WIyWlLk6GJQsqaUBKTNV-6" value="Ending&amp;nbsp;&lt;div&gt;condition&amp;nbsp;&lt;/div&gt;&lt;div&gt;met?&lt;/div&gt;" style="rhombus;whiteSpace=wrap;html=1;shadow=0;fontFamily=Helvetica;fontSize=15;align=center;strokeWidth=2;spacing=6;spacingTop=-4;movable=1;resizable=1;rotatable=1;deletable=1;editable=1;locked=0;connectable=1;container=0;" parent="WIyWlLk6GJQsqaUBKTNV-1" vertex="1">
          <mxGeometry x="170" y="650" width="130" height="90" as="geometry" />
        </mxCell>
        <mxCell id="I7D070yaXzZMGeD8CzcI-26" style="edgeStyle=orthogonalEdgeStyle;rounded=0;orthogonalLoop=1;jettySize=auto;html=1;exitX=0.5;exitY=0;exitDx=0;exitDy=0;entryX=0.5;entryY=1;entryDx=0;entryDy=0;" edge="1" parent="WIyWlLk6GJQsqaUBKTNV-1" source="I7D070yaXzZMGeD8CzcI-5" target="WIyWlLk6GJQsqaUBKTNV-6">
          <mxGeometry relative="1" as="geometry" />
        </mxCell>
        <mxCell id="I7D070yaXzZMGeD8CzcI-5" value="&lt;font style=&quot;font-size: 15px;&quot;&gt;Update number of iterations&lt;/font&gt;" style="rounded=1;whiteSpace=wrap;html=1;fontSize=18;glass=0;strokeWidth=2;shadow=0;movable=1;resizable=1;rotatable=1;deletable=1;editable=1;locked=0;connectable=1;container=0;" vertex="1" parent="WIyWlLk6GJQsqaUBKTNV-1">
          <mxGeometry x="170" y="770" width="130" height="50" as="geometry" />
        </mxCell>
        <mxCell id="I7D070yaXzZMGeD8CzcI-28" style="edgeStyle=orthogonalEdgeStyle;rounded=0;orthogonalLoop=1;jettySize=auto;html=1;exitX=0.5;exitY=0;exitDx=0;exitDy=0;entryX=0.5;entryY=1;entryDx=0;entryDy=0;" edge="1" parent="WIyWlLk6GJQsqaUBKTNV-1" source="I7D070yaXzZMGeD8CzcI-6" target="I7D070yaXzZMGeD8CzcI-18">
          <mxGeometry relative="1" as="geometry" />
        </mxCell>
        <mxCell id="I7D070yaXzZMGeD8CzcI-6" value="&lt;font style=&quot;font-size: 15px;&quot;&gt;Select next cel&lt;span style=&quot;color: rgba(0, 0, 0, 0); font-family: monospace; font-size: 0px; text-align: start; text-wrap: nowrap;&quot;&gt;%3CmxGraphModel%3E%3Croot%3E%3CmxCell%20id%3D%220%22%2F%3E%3CmxCell%20id%3D%221%22%20parent%3D%220%22%2F%3E%3CmxCell%20id%3D%222%22%20value%3D%22%26lt%3Bfont%20style%3D%26quot%3Bfont-size%3A%2015px%3B%26quot%3B%26gt%3BUpdate%20global%20timer%26lt%3B%2Ffont%26gt%3B%22%20style%3D%22rounded%3D1%3BwhiteSpace%3Dwrap%3Bhtml%3D1%3BfontSize%3D18%3Bglass%3D0%3BstrokeWidth%3D2%3Bshadow%3D0%3B%22%20vertex%3D%221%22%20parent%3D%221%22%3E%3CmxGeometry%20x%3D%22240%22%20y%3D%22370%22%20width%3D%22130%22%20height%3D%2250%22%20as%3D%22geometry%22%2F%3E%3C%2FmxCell%3E%3C%2Froot%3E%3C%2FmxGraphModel%3E&lt;/span&gt;l&lt;/font&gt;" style="rounded=1;whiteSpace=wrap;html=1;fontSize=18;glass=0;strokeWidth=2;shadow=0;movable=1;resizable=1;rotatable=1;deletable=1;editable=1;locked=0;connectable=1;container=0;" vertex="1" parent="WIyWlLk6GJQsqaUBKTNV-1">
          <mxGeometry x="170" y="570" width="130" height="50" as="geometry" />
        </mxCell>
        <mxCell id="I7D070yaXzZMGeD8CzcI-49" style="edgeStyle=orthogonalEdgeStyle;rounded=0;orthogonalLoop=1;jettySize=auto;html=1;exitX=0.5;exitY=0;exitDx=0;exitDy=0;entryX=0.5;entryY=1;entryDx=0;entryDy=0;" edge="1" parent="WIyWlLk6GJQsqaUBKTNV-1" source="I7D070yaXzZMGeD8CzcI-7" target="I7D070yaXzZMGeD8CzcI-20">
          <mxGeometry relative="1" as="geometry" />
        </mxCell>
        <mxCell id="I7D070yaXzZMGeD8CzcI-7" value="&lt;span style=&quot;font-size: 15px;&quot;&gt;Move to target location&lt;/span&gt;" style="rounded=1;whiteSpace=wrap;html=1;fontSize=18;glass=0;strokeWidth=2;shadow=0;movable=1;resizable=1;rotatable=1;deletable=1;editable=1;locked=0;connectable=1;container=0;" vertex="1" parent="WIyWlLk6GJQsqaUBKTNV-1">
          <mxGeometry x="170" y="370" width="130" height="50" as="geometry" />
        </mxCell>
        <mxCell id="I7D070yaXzZMGeD8CzcI-29" style="edgeStyle=orthogonalEdgeStyle;rounded=0;orthogonalLoop=1;jettySize=auto;html=1;exitX=0.5;exitY=0;exitDx=0;exitDy=0;entryX=0.5;entryY=1;entryDx=0;entryDy=0;" edge="1" parent="WIyWlLk6GJQsqaUBKTNV-1" source="I7D070yaXzZMGeD8CzcI-18" target="I7D070yaXzZMGeD8CzcI-7">
          <mxGeometry relative="1" as="geometry" />
        </mxCell>
        <mxCell id="I7D070yaXzZMGeD8CzcI-50" style="edgeStyle=orthogonalEdgeStyle;rounded=0;orthogonalLoop=1;jettySize=auto;html=1;exitX=0;exitY=0.5;exitDx=0;exitDy=0;entryX=0;entryY=0.5;entryDx=0;entryDy=0;" edge="1" parent="WIyWlLk6GJQsqaUBKTNV-1" source="I7D070yaXzZMGeD8CzcI-18" target="I7D070yaXzZMGeD8CzcI-20">
          <mxGeometry relative="1" as="geometry">
            <Array as="points">
              <mxPoint x="140" y="495" />
              <mxPoint x="140" y="315" />
            </Array>
          </mxGeometry>
        </mxCell>
        <mxCell id="I7D070yaXzZMGeD8CzcI-18" value="Target&amp;nbsp;&lt;div&gt;location occupied?&lt;/div&gt;" style="rhombus;whiteSpace=wrap;html=1;shadow=0;fontFamily=Helvetica;fontSize=15;align=center;strokeWidth=2;spacing=6;spacingTop=-4;movable=1;resizable=1;rotatable=1;deletable=1;editable=1;locked=0;connectable=1;container=0;" vertex="1" parent="WIyWlLk6GJQsqaUBKTNV-1">
          <mxGeometry x="170" y="450" width="130" height="90" as="geometry" />
        </mxCell>
        <mxCell id="I7D070yaXzZMGeD8CzcI-55" style="edgeStyle=orthogonalEdgeStyle;rounded=0;orthogonalLoop=1;jettySize=auto;html=1;exitX=1;exitY=0.5;exitDx=0;exitDy=0;entryX=0;entryY=0.5;entryDx=0;entryDy=0;" edge="1" parent="WIyWlLk6GJQsqaUBKTNV-1" source="I7D070yaXzZMGeD8CzcI-20" target="I7D070yaXzZMGeD8CzcI-11">
          <mxGeometry relative="1" as="geometry" />
        </mxCell>
        <mxCell id="I7D070yaXzZMGeD8CzcI-20" value="&lt;span style=&quot;font-size: 15px;&quot;&gt;Cell take action&lt;/span&gt;" style="rounded=1;whiteSpace=wrap;html=1;fontSize=18;glass=0;strokeWidth=2;shadow=0;movable=1;resizable=1;rotatable=1;deletable=1;editable=1;locked=0;connectable=1;container=0;" vertex="1" parent="WIyWlLk6GJQsqaUBKTNV-1">
          <mxGeometry x="170" y="290" width="130" height="50" as="geometry" />
        </mxCell>
        <mxCell id="I7D070yaXzZMGeD8CzcI-47" style="edgeStyle=orthogonalEdgeStyle;rounded=0;orthogonalLoop=1;jettySize=auto;html=1;entryX=0;entryY=0.5;entryDx=0;entryDy=0;" edge="1" parent="WIyWlLk6GJQsqaUBKTNV-1" source="I7D070yaXzZMGeD8CzcI-4" target="I7D070yaXzZMGeD8CzcI-5">
          <mxGeometry relative="1" as="geometry">
            <Array as="points">
              <mxPoint x="75" y="795" />
            </Array>
          </mxGeometry>
        </mxCell>
        <mxCell id="I7D070yaXzZMGeD8CzcI-56" style="edgeStyle=orthogonalEdgeStyle;rounded=0;orthogonalLoop=1;jettySize=auto;html=1;exitX=0;exitY=0.5;exitDx=0;exitDy=0;entryX=1;entryY=0.5;entryDx=0;entryDy=0;" edge="1" parent="WIyWlLk6GJQsqaUBKTNV-1" source="I7D070yaXzZMGeD8CzcI-8" target="I7D070yaXzZMGeD8CzcI-6">
          <mxGeometry relative="1" as="geometry" />
        </mxCell>
        <mxCell id="I7D070yaXzZMGeD8CzcI-57" style="edgeStyle=orthogonalEdgeStyle;rounded=0;orthogonalLoop=1;jettySize=auto;html=1;exitX=1;exitY=0.5;exitDx=0;exitDy=0;entryX=1;entryY=0.5;entryDx=0;entryDy=0;" edge="1" parent="WIyWlLk6GJQsqaUBKTNV-1" source="I7D070yaXzZMGeD8CzcI-8" target="I7D070yaXzZMGeD8CzcI-5">
          <mxGeometry relative="1" as="geometry">
            <Array as="points">
              <mxPoint x="490" y="595" />
              <mxPoint x="490" y="795" />
            </Array>
          </mxGeometry>
        </mxCell>
        <mxCell id="I7D070yaXzZMGeD8CzcI-8" value="All cells have acted?" style="rhombus;whiteSpace=wrap;html=1;shadow=0;fontFamily=Helvetica;fontSize=15;align=center;strokeWidth=2;spacing=6;spacingTop=-4;movable=1;resizable=1;rotatable=1;deletable=1;editable=1;locked=0;connectable=1;container=0;" vertex="1" parent="WIyWlLk6GJQsqaUBKTNV-1">
          <mxGeometry x="330" y="550" width="130" height="90" as="geometry" />
        </mxCell>
        <mxCell id="I7D070yaXzZMGeD8CzcI-11" value="Cell died?" style="rhombus;whiteSpace=wrap;html=1;shadow=0;fontFamily=Helvetica;fontSize=15;align=center;strokeWidth=2;spacing=6;spacingTop=-4;movable=1;resizable=1;rotatable=1;deletable=1;editable=1;locked=0;connectable=1;container=0;" vertex="1" parent="WIyWlLk6GJQsqaUBKTNV-1">
          <mxGeometry x="330" y="270" width="130" height="90" as="geometry" />
        </mxCell>
        <mxCell id="I7D070yaXzZMGeD8CzcI-64" style="edgeStyle=orthogonalEdgeStyle;rounded=0;orthogonalLoop=1;jettySize=auto;html=1;exitX=1;exitY=0.5;exitDx=0;exitDy=0;entryX=0;entryY=0.5;entryDx=0;entryDy=0;" edge="1" parent="WIyWlLk6GJQsqaUBKTNV-1" source="I7D070yaXzZMGeD8CzcI-12" target="I7D070yaXzZMGeD8CzcI-33">
          <mxGeometry relative="1" as="geometry" />
        </mxCell>
        <mxCell id="I7D070yaXzZMGeD8CzcI-12" value="Cell divided?" style="rhombus;whiteSpace=wrap;html=1;shadow=0;fontFamily=Helvetica;fontSize=15;align=center;strokeWidth=2;spacing=6;spacingTop=-4;movable=1;resizable=1;rotatable=1;deletable=1;editable=1;locked=0;connectable=1;container=0;" vertex="1" parent="WIyWlLk6GJQsqaUBKTNV-1">
          <mxGeometry x="330" y="410" width="130" height="90" as="geometry" />
        </mxCell>
        <mxCell id="I7D070yaXzZMGeD8CzcI-22" style="edgeStyle=orthogonalEdgeStyle;rounded=0;orthogonalLoop=1;jettySize=auto;html=1;exitX=1;exitY=0.5;exitDx=0;exitDy=0;entryX=0;entryY=0.5;entryDx=0;entryDy=0;" edge="1" parent="WIyWlLk6GJQsqaUBKTNV-1" source="I7D070yaXzZMGeD8CzcI-11" target="I7D070yaXzZMGeD8CzcI-13">
          <mxGeometry relative="1" as="geometry" />
        </mxCell>
        <mxCell id="I7D070yaXzZMGeD8CzcI-42" style="edgeStyle=orthogonalEdgeStyle;rounded=0;orthogonalLoop=1;jettySize=auto;html=1;exitX=0.5;exitY=1;exitDx=0;exitDy=0;entryX=0.5;entryY=0;entryDx=0;entryDy=0;" edge="1" parent="WIyWlLk6GJQsqaUBKTNV-1" source="I7D070yaXzZMGeD8CzcI-12" target="I7D070yaXzZMGeD8CzcI-8">
          <mxGeometry relative="1" as="geometry" />
        </mxCell>
        <mxCell id="I7D070yaXzZMGeD8CzcI-23" style="edgeStyle=orthogonalEdgeStyle;rounded=0;orthogonalLoop=1;jettySize=auto;html=1;exitX=0.5;exitY=1;exitDx=0;exitDy=0;entryX=0.5;entryY=0;entryDx=0;entryDy=0;" edge="1" parent="WIyWlLk6GJQsqaUBKTNV-1" source="I7D070yaXzZMGeD8CzcI-11" target="I7D070yaXzZMGeD8CzcI-12">
          <mxGeometry relative="1" as="geometry" />
        </mxCell>
        <mxCell id="I7D070yaXzZMGeD8CzcI-71" style="edgeStyle=orthogonalEdgeStyle;rounded=0;orthogonalLoop=1;jettySize=auto;html=1;exitX=1;exitY=0.5;exitDx=0;exitDy=0;" edge="1" parent="WIyWlLk6GJQsqaUBKTNV-1" source="I7D070yaXzZMGeD8CzcI-14">
          <mxGeometry relative="1" as="geometry">
            <mxPoint x="820" y="495" as="targetPoint" />
          </mxGeometry>
        </mxCell>
        <mxCell id="I7D070yaXzZMGeD8CzcI-14" value="&lt;span style=&quot;font-size: 15px;&quot;&gt;Daughter cell in adjacent grid&lt;/span&gt;" style="rounded=1;whiteSpace=wrap;html=1;fontSize=18;glass=0;strokeWidth=2;shadow=0;movable=1;resizable=1;rotatable=1;deletable=1;editable=1;locked=0;connectable=1;container=0;" vertex="1" parent="WIyWlLk6GJQsqaUBKTNV-1">
          <mxGeometry x="660" y="470" width="130" height="50" as="geometry" />
        </mxCell>
        <mxCell id="I7D070yaXzZMGeD8CzcI-70" style="edgeStyle=orthogonalEdgeStyle;rounded=0;orthogonalLoop=1;jettySize=auto;html=1;exitX=1;exitY=0.5;exitDx=0;exitDy=0;" edge="1" parent="WIyWlLk6GJQsqaUBKTNV-1" source="I7D070yaXzZMGeD8CzcI-34">
          <mxGeometry relative="1" as="geometry">
            <mxPoint x="820" y="415" as="targetPoint" />
          </mxGeometry>
        </mxCell>
        <mxCell id="I7D070yaXzZMGeD8CzcI-34" value="&lt;span style=&quot;font-size: 15px;&quot;&gt;Do not divide&lt;/span&gt;" style="rounded=1;whiteSpace=wrap;html=1;fontSize=18;glass=0;strokeWidth=2;shadow=0;movable=1;resizable=1;rotatable=1;deletable=1;editable=1;locked=0;connectable=1;container=0;" vertex="1" parent="WIyWlLk6GJQsqaUBKTNV-1">
          <mxGeometry x="660" y="390" width="130" height="50" as="geometry" />
        </mxCell>
        <mxCell id="I7D070yaXzZMGeD8CzcI-9" value="&lt;font style=&quot;font-size: 15px;&quot;&gt;End&lt;/font&gt;" style="strokeWidth=2;html=1;shape=mxgraph.flowchart.terminator;whiteSpace=wrap;fontSize=18;movable=1;resizable=1;rotatable=1;deletable=1;editable=1;locked=0;connectable=1;container=0;" vertex="1" parent="WIyWlLk6GJQsqaUBKTNV-1">
          <mxGeometry x="350" y="675" width="90" height="40" as="geometry" />
        </mxCell>
        <mxCell id="I7D070yaXzZMGeD8CzcI-69" style="edgeStyle=orthogonalEdgeStyle;rounded=0;orthogonalLoop=1;jettySize=auto;html=1;exitX=1;exitY=0.5;exitDx=0;exitDy=0;endSize=6;" edge="1" parent="WIyWlLk6GJQsqaUBKTNV-1" source="I7D070yaXzZMGeD8CzcI-13">
          <mxGeometry relative="1" as="geometry">
            <mxPoint x="395" y="530" as="targetPoint" />
            <Array as="points">
              <mxPoint x="820" y="315" />
              <mxPoint x="820" y="530" />
            </Array>
          </mxGeometry>
        </mxCell>
        <mxCell id="I7D070yaXzZMGeD8CzcI-13" value="&lt;span style=&quot;font-size: 15px;&quot;&gt;Cell removed from grid world&lt;/span&gt;" style="rounded=1;whiteSpace=wrap;html=1;fontSize=18;glass=0;strokeWidth=2;shadow=0;movable=1;resizable=1;rotatable=1;deletable=1;editable=1;locked=0;connectable=1;container=0;" vertex="1" parent="WIyWlLk6GJQsqaUBKTNV-1">
          <mxGeometry x="490" y="290" width="130" height="50" as="geometry" />
        </mxCell>
        <mxCell id="I7D070yaXzZMGeD8CzcI-62" style="edgeStyle=orthogonalEdgeStyle;rounded=0;orthogonalLoop=1;jettySize=auto;html=1;exitX=1;exitY=0.5;exitDx=0;exitDy=0;entryX=0;entryY=0.5;entryDx=0;entryDy=0;" edge="1" parent="WIyWlLk6GJQsqaUBKTNV-1" source="I7D070yaXzZMGeD8CzcI-33" target="I7D070yaXzZMGeD8CzcI-34">
          <mxGeometry relative="1" as="geometry">
            <Array as="points">
              <mxPoint x="630" y="455" />
              <mxPoint x="630" y="415" />
            </Array>
          </mxGeometry>
        </mxCell>
        <mxCell id="I7D070yaXzZMGeD8CzcI-63" style="edgeStyle=orthogonalEdgeStyle;rounded=0;orthogonalLoop=1;jettySize=auto;html=1;exitX=1;exitY=0.5;exitDx=0;exitDy=0;entryX=0;entryY=0.5;entryDx=0;entryDy=0;" edge="1" parent="WIyWlLk6GJQsqaUBKTNV-1" source="I7D070yaXzZMGeD8CzcI-33" target="I7D070yaXzZMGeD8CzcI-14">
          <mxGeometry relative="1" as="geometry">
            <Array as="points">
              <mxPoint x="630" y="455" />
              <mxPoint x="630" y="495" />
            </Array>
          </mxGeometry>
        </mxCell>
        <mxCell id="I7D070yaXzZMGeD8CzcI-33" value="All&amp;nbsp;&lt;div&gt;adjacent grids&amp;nbsp; &amp;nbsp;occupied?&lt;/div&gt;" style="rhombus;whiteSpace=wrap;html=1;shadow=0;fontFamily=Helvetica;fontSize=15;align=center;strokeWidth=2;spacing=6;spacingTop=-4;movable=1;resizable=1;rotatable=1;deletable=1;editable=1;locked=0;connectable=1;container=0;" vertex="1" parent="WIyWlLk6GJQsqaUBKTNV-1">
          <mxGeometry x="490" y="410" width="130" height="90" as="geometry" />
        </mxCell>
        <mxCell id="I7D070yaXzZMGeD8CzcI-60" style="edgeStyle=orthogonalEdgeStyle;rounded=0;orthogonalLoop=1;jettySize=auto;html=1;exitX=1;exitY=0.5;exitDx=0;exitDy=0;entryX=0;entryY=0.5;entryDx=0;entryDy=0;entryPerimeter=0;" edge="1" parent="WIyWlLk6GJQsqaUBKTNV-1" source="WIyWlLk6GJQsqaUBKTNV-6" target="I7D070yaXzZMGeD8CzcI-9">
          <mxGeometry relative="1" as="geometry" />
        </mxCell>
        <mxCell id="I7D070yaXzZMGeD8CzcI-61" value="" style="group" vertex="1" connectable="0" parent="WIyWlLk6GJQsqaUBKTNV-1">
          <mxGeometry x="10" y="540" width="130" height="200" as="geometry" />
        </mxCell>
        <mxCell id="WIyWlLk6GJQsqaUBKTNV-12" value="&lt;font style=&quot;font-size: 15px;&quot;&gt;Initialise the grid world&lt;/font&gt;" style="rounded=1;whiteSpace=wrap;html=1;fontSize=18;glass=0;strokeWidth=2;shadow=0;movable=1;resizable=1;rotatable=1;deletable=1;editable=1;locked=0;connectable=1;container=0;" parent="I7D070yaXzZMGeD8CzcI-61" vertex="1">
          <mxGeometry y="70" width="130" height="50" as="geometry" />
        </mxCell>
        <mxCell id="I7D070yaXzZMGeD8CzcI-3" value="&lt;font style=&quot;font-size: 15px;&quot;&gt;Start&lt;/font&gt;" style="strokeWidth=2;html=1;shape=mxgraph.flowchart.terminator;whiteSpace=wrap;fontSize=18;movable=1;resizable=1;rotatable=1;deletable=1;editable=1;locked=0;connectable=1;container=0;" vertex="1" parent="I7D070yaXzZMGeD8CzcI-61">
          <mxGeometry x="20" width="90" height="40" as="geometry" />
        </mxCell>
        <mxCell id="I7D070yaXzZMGeD8CzcI-4" value="&lt;font style=&quot;font-size: 15px;&quot;&gt;Randomly locate cells&amp;nbsp;&lt;/font&gt;" style="rounded=1;whiteSpace=wrap;html=1;fontSize=18;glass=0;strokeWidth=2;shadow=0;movable=1;resizable=1;rotatable=1;deletable=1;editable=1;locked=0;connectable=1;container=0;" vertex="1" parent="I7D070yaXzZMGeD8CzcI-61">
          <mxGeometry y="150" width="130" height="50" as="geometry" />
        </mxCell>
        <mxCell id="I7D070yaXzZMGeD8CzcI-45" style="edgeStyle=orthogonalEdgeStyle;rounded=0;orthogonalLoop=1;jettySize=auto;html=1;exitX=0.5;exitY=1;exitDx=0;exitDy=0;exitPerimeter=0;entryX=0.5;entryY=0;entryDx=0;entryDy=0;" edge="1" parent="I7D070yaXzZMGeD8CzcI-61" source="I7D070yaXzZMGeD8CzcI-3" target="WIyWlLk6GJQsqaUBKTNV-12">
          <mxGeometry relative="1" as="geometry" />
        </mxCell>
        <mxCell id="I7D070yaXzZMGeD8CzcI-46" style="edgeStyle=orthogonalEdgeStyle;rounded=0;orthogonalLoop=1;jettySize=auto;html=1;exitX=0.5;exitY=1;exitDx=0;exitDy=0;entryX=0.5;entryY=0;entryDx=0;entryDy=0;" edge="1" parent="I7D070yaXzZMGeD8CzcI-61" source="WIyWlLk6GJQsqaUBKTNV-12" target="I7D070yaXzZMGeD8CzcI-4">
          <mxGeometry relative="1" as="geometry" />
        </mxCell>
        <mxCell id="I7D070yaXzZMGeD8CzcI-72" value="Y" style="text;html=1;align=center;verticalAlign=middle;whiteSpace=wrap;rounded=0;fontSize=15;" vertex="1" parent="WIyWlLk6GJQsqaUBKTNV-1">
          <mxGeometry x="460" y="570" width="30" height="30" as="geometry" />
        </mxCell>
        <mxCell id="I7D070yaXzZMGeD8CzcI-73" value="N" style="text;html=1;align=center;verticalAlign=middle;whiteSpace=wrap;rounded=0;fontSize=15;" vertex="1" parent="WIyWlLk6GJQsqaUBKTNV-1">
          <mxGeometry x="230" y="625" width="30" height="30" as="geometry" />
        </mxCell>
        <mxCell id="I7D070yaXzZMGeD8CzcI-74" value="Y" style="text;html=1;align=center;verticalAlign=middle;whiteSpace=wrap;rounded=0;fontSize=15;" vertex="1" parent="WIyWlLk6GJQsqaUBKTNV-1">
          <mxGeometry x="306" y="670" width="30" height="30" as="geometry" />
        </mxCell>
        <mxCell id="I7D070yaXzZMGeD8CzcI-76" value="Y" style="text;html=1;align=center;verticalAlign=middle;whiteSpace=wrap;rounded=0;fontSize=15;" vertex="1" parent="WIyWlLk6GJQsqaUBKTNV-1">
          <mxGeometry x="140" y="470" width="30" height="30" as="geometry" />
        </mxCell>
        <mxCell id="I7D070yaXzZMGeD8CzcI-77" value="N" style="text;html=1;align=center;verticalAlign=middle;whiteSpace=wrap;rounded=0;fontSize=15;" vertex="1" parent="WIyWlLk6GJQsqaUBKTNV-1">
          <mxGeometry x="306" y="570" width="30" height="30" as="geometry" />
        </mxCell>
        <mxCell id="I7D070yaXzZMGeD8CzcI-78" value="N" style="text;html=1;align=center;verticalAlign=middle;whiteSpace=wrap;rounded=0;fontSize=15;" vertex="1" parent="WIyWlLk6GJQsqaUBKTNV-1">
          <mxGeometry x="230" y="425" width="30" height="30" as="geometry" />
        </mxCell>
        <mxCell id="I7D070yaXzZMGeD8CzcI-79" value="Y" style="text;html=1;align=center;verticalAlign=middle;whiteSpace=wrap;rounded=0;fontSize=15;" vertex="1" parent="WIyWlLk6GJQsqaUBKTNV-1">
          <mxGeometry x="456" y="290" width="30" height="30" as="geometry" />
        </mxCell>
        <mxCell id="I7D070yaXzZMGeD8CzcI-80" value="N" style="text;html=1;align=center;verticalAlign=middle;whiteSpace=wrap;rounded=0;fontSize=15;" vertex="1" parent="WIyWlLk6GJQsqaUBKTNV-1">
          <mxGeometry x="390" y="366" width="30" height="30" as="geometry" />
        </mxCell>
        <mxCell id="I7D070yaXzZMGeD8CzcI-85" value="Y" style="text;html=1;align=center;verticalAlign=middle;whiteSpace=wrap;rounded=0;fontSize=15;" vertex="1" parent="WIyWlLk6GJQsqaUBKTNV-1">
          <mxGeometry x="456" y="431" width="30" height="30" as="geometry" />
        </mxCell>
        <mxCell id="I7D070yaXzZMGeD8CzcI-88" value="N" style="text;html=1;align=center;verticalAlign=middle;whiteSpace=wrap;rounded=0;fontSize=15;" vertex="1" parent="WIyWlLk6GJQsqaUBKTNV-1">
          <mxGeometry x="630" y="470" width="30" height="30" as="geometry" />
        </mxCell>
        <mxCell id="I7D070yaXzZMGeD8CzcI-89" value="Y" style="text;html=1;align=center;verticalAlign=middle;whiteSpace=wrap;rounded=0;fontSize=15;" vertex="1" parent="WIyWlLk6GJQsqaUBKTNV-1">
          <mxGeometry x="630" y="390" width="30" height="30" as="geometry" />
        </mxCell>
        <mxCell id="I7D070yaXzZMGeD8CzcI-92" value="N" style="text;html=1;align=center;verticalAlign=middle;whiteSpace=wrap;rounded=0;fontSize=15;" vertex="1" parent="WIyWlLk6GJQsqaUBKTNV-1">
          <mxGeometry x="390" y="500" width="30" height="30" as="geometry" />
        </mxCell>
      </root>
    </mxGraphModel>
  </diagram>
</mxfile>
